<svg xmlns="http://www.w3.org/2000/svg" version="1.2" baseProfile="tiny-ps" viewBox="0 0.31 4999.7 679.69">
	<title>e </title>
	<style>
		tspan { white-space:pre }
		.shp0 { fill: #ffffff } 
	</style>
	<path id="e " fill-rule="evenodd" class="shp0" d="M0 120.43C20.18 120.43 60.22 120.43 120.12 120.43C120.12 213.53 120.12 400.05 120.12 680C99.93 680 59.9 680 0 680C0 586.9 0 400.38 0 120.43ZM440.43 0.31C459.96 19.84 499.67 59.88 559.57 120.43C559.57 193.35 559.57 339.83 559.57 559.88C540.04 580.07 500.33 620.1 440.43 680C406.58 680 339.84 680 240.23 680C240.23 659.82 240.23 619.78 240.23 559.88C259.77 559.88 299.8 559.88 360.35 559.88C373.37 546.86 400.06 520.17 440.43 479.8C440.43 399.73 440.43 239.9 440.43 0.31ZM240.23 120.43C253.26 120.43 279.95 120.43 320.31 120.43C320.31 173.16 320.31 279.61 320.31 439.77C313.15 439.77 299.8 439.77 280.27 439.77C273.11 439.77 259.77 439.77 240.23 439.77C240.23 386.38 240.23 279.93 240.23 120.43ZM1187.3 94.6C1229.9 94.6 1262.9 103.3 1286.3 120.7C1309.7 138.1 1325.9 161.5 1334.9 190.9C1344.5 220.3 1349.3 253 1349.3 289L1349.3 577L1256.6 577L1256.6 295.3C1256.6 272.5 1253.6 252.1 1247.6 234.1C1241.6 216.1 1231.4 202 1217 191.8C1202.6 181.6 1182.5 177.4 1156.7 179.2C1132.7 179.2 1111.4 184.3 1092.8 194.5C1074.2 204.7 1059.5 218.2 1048.7 235C1037.9 251.8 1032.5 270.4 1032.5 290.8L1032.5 577L939.8 577L939.8 104.5L1032.5 104.5L1032.5 179.2C1046.9 157 1067.9 137.5 1095.5 120.7C1123.1 103.3 1153.7 94.6 1187.3 94.6ZM1835.3 447.4L1881.2 514.9L1880.3 514.9C1861.1 533.5 1834.7 550 1801.1 564.4C1767.5 578.8 1732.4 586 1695.8 586C1646.6 586 1603.1 575.8 1565.3 555.4C1528.1 534.4 1499 505.9 1478 469.9C1457 433.3 1446.5 391.9 1446.5 345.7C1446.5 292.9 1457.6 247.9 1479.8 210.7C1502 172.9 1531.4 144.1 1568 124.3C1604.6 103.9 1644.5 93.7 1687.7 93.7C1727.3 93.7 1763.3 103.6 1795.7 123.4C1828.1 142.6 1853.9 169.3 1873.1 203.5C1892.3 237.7 1901.9 277.6 1901.9 323.2L1901 362.8L1539.2 362.8C1544.6 405.4 1562 439.3 1591.4 464.5C1621.4 489.1 1659.2 501.4 1704.8 501.4C1737.8 501.4 1764.5 495.4 1784.9 483.4C1805.3 470.8 1822.1 458.8 1835.3 447.4ZM1687.7 179.2C1652.3 179.2 1621.4 187.6 1595 204.4C1568.6 220.6 1551.2 248.8 1542.8 289L1807.4 289L1807.4 282.7C1805.6 262.3 1798.7 244.3 1786.7 228.7C1775.3 213.1 1760.9 201.1 1743.5 192.7C1726.1 183.7 1707.5 179.2 1687.7 179.2ZM2535.5 104.5L2629.1 104.5L2469.8 577L2405.9 577L2285.3 302.5L2172.8 577L2109.8 577L1948.7 104.5L2042.3 103.6L2148.5 429.4L2261.9 179.2L2317.7 179.2L2430.2 425.8L2535.5 104.5ZM2704.7 104.5L2804.6 104.5L2942.3 442L3085.4 104.5L3180.8 104.5L2971.1 577L2904.5 577L2704.7 104.5ZM3611.9 447.4L3657.8 514.9L3656.9 514.9C3637.7 533.5 3611.3 550 3577.7 564.4C3544.1 578.8 3509 586 3472.4 586C3423.2 586 3379.7 575.8 3341.9 555.4C3304.7 534.4 3275.6 505.9 3254.6 469.9C3233.6 433.3 3223.1 391.9 3223.1 345.7C3223.1 292.9 3234.2 247.9 3256.4 210.7C3278.6 172.9 3308 144.1 3344.6 124.3C3381.2 103.9 3421.1 93.7 3464.3 93.7C3503.9 93.7 3539.9 103.6 3572.3 123.4C3604.7 142.6 3630.5 169.3 3649.7 203.5C3668.9 237.7 3678.5 277.6 3678.5 323.2L3677.6 362.8L3315.8 362.8C3321.2 405.4 3338.6 439.3 3368 464.5C3398 489.1 3435.8 501.4 3481.4 501.4C3514.4 501.4 3541.1 495.4 3561.5 483.4C3581.9 470.8 3598.7 458.8 3611.9 447.4ZM3464.3 179.2C3428.9 179.2 3398 187.6 3371.6 204.4C3345.2 220.6 3327.8 248.8 3319.4 289L3584 289L3584 282.7C3582.2 262.3 3575.3 244.3 3563.3 228.7C3551.9 213.1 3537.5 201.1 3520.1 192.7C3502.7 183.7 3484.1 179.2 3464.3 179.2ZM4068.2 103.6L4043.9 204.4C4037.9 201.4 4030.4 199 4021.4 197.2C4013 194.8 4004 193.6 3994.4 193.6C3975.2 193.6 3956.3 198.7 3937.7 208.9C3919.1 218.5 3903.5 232.6 3890.9 251.2C3878.9 269.2 3872.9 290.8 3872.9 316L3872.9 577L3779.3 577L3779.3 104.5L3872.9 104.5L3872.9 193.6C3886.1 164.8 3905.9 141.1 3932.3 122.5C3959.3 103.9 3987.5 94.6 4016.9 94.6C4039.1 94.6 4056.2 97.6 4068.2 103.6ZM4467.8 170.2L4414.7 228.7C4397.9 211.9 4378.7 198.1 4357.1 187.3C4336.1 176.5 4316.6 171.1 4298.6 171.1C4286 171.1 4273.4 172.6 4260.8 175.6C4248.8 178.6 4238.6 184.3 4230.2 192.7C4221.8 200.5 4217.6 212.2 4217.6 227.8C4218.2 249.4 4227.8 264.7 4246.4 273.7C4265.6 282.7 4289.3 290.8 4317.5 298C4342.1 304.6 4366.1 313 4389.5 323.2C4412.9 332.8 4432.1 347.2 4447.1 366.4C4462.7 385 4470.5 411.4 4470.5 445.6C4470.5 475 4462.1 500.2 4445.3 521.2C4429.1 542.2 4407.8 558.4 4381.4 569.8C4355.6 580.6 4328.3 586 4299.5 586C4265.3 586 4231.4 580 4197.8 568C4164.8 555.4 4136.6 534.1 4113.2 504.1L4176.2 450.1C4192.4 468.7 4210.7 483.4 4231.1 494.2C4252.1 504.4 4277.6 509.5 4307.6 509.5C4319 509.5 4330.4 507.7 4341.8 504.1C4353.2 499.9 4362.8 493.6 4370.6 485.2C4379 476.2 4383.2 464.2 4383.2 449.2C4383.2 434.8 4378.7 423.7 4369.7 415.9C4361.3 407.5 4349.9 400.9 4335.5 396.1C4321.1 390.7 4305.2 385.9 4287.8 381.7C4262 374.5 4236.5 365.8 4211.3 355.6C4186.7 344.8 4166 329.8 4149.2 310.6C4133 290.8 4124.9 264.1 4124.9 230.5C4124.9 202.3 4132.7 178.3 4148.3 158.5C4164.5 138.1 4185.5 122.5 4211.3 111.7C4237.1 100.3 4264.7 94.6 4294.1 94.6C4322.3 94.6 4352.9 100.6 4385.9 112.6C4418.9 124.6 4446.2 143.8 4467.8 170.2ZM4933.1 447.4L4979 514.9L4978.1 514.9C4958.9 533.5 4932.5 550 4898.9 564.4C4865.3 578.8 4830.2 586 4793.6 586C4744.4 586 4700.9 575.8 4663.1 555.4C4625.9 534.4 4596.8 505.9 4575.8 469.9C4554.8 433.3 4544.3 391.9 4544.3 345.7C4544.3 292.9 4555.4 247.9 4577.6 210.7C4599.8 172.9 4629.2 144.1 4665.8 124.3C4702.4 103.9 4742.3 93.7 4785.5 93.7C4825.1 93.7 4861.1 103.6 4893.5 123.4C4925.9 142.6 4951.7 169.3 4970.9 203.5C4990.1 237.7 4999.7 277.6 4999.7 323.2L4998.8 362.8L4637 362.8C4642.4 405.4 4659.8 439.3 4689.2 464.5C4719.2 489.1 4757 501.4 4802.6 501.4C4835.6 501.4 4862.3 495.4 4882.7 483.4C4903.1 470.8 4919.9 458.8 4933.1 447.4ZM4785.5 179.2C4750.1 179.2 4719.2 187.6 4692.8 204.4C4666.4 220.6 4649 248.8 4640.6 289L4905.2 289L4905.2 282.7C4903.4 262.3 4896.5 244.3 4884.5 228.7C4873.1 213.1 4858.7 201.1 4841.3 192.7C4823.9 183.7 4805.3 179.2 4785.5 179.2Z"/>
</svg>