<svg version="1.2" baseProfile="tiny-ps" xmlns="http://www.w3.org/2000/svg" viewBox="0 0 560 680" width="560" height="680">
	<title>e </title>
	<style>
		tspan { white-space:pre }
		.shp0 { fill: #ffffff } 
	</style>
	<path id="e " fill-rule="evenodd" class="shp0" d="M0 120.43C20.18 120.43 60.22 120.43 120.12 120.43C120.12 213.53 120.12 400.05 120.12 680C99.93 680 59.9 680 0 680C0 586.9 0 400.38 0 120.43ZM440.43 0.31C459.96 19.84 499.67 59.88 559.57 120.43C559.57 193.35 559.57 339.83 559.57 559.88C540.04 580.07 500.33 620.1 440.43 680C406.58 680 339.84 680 240.23 680C240.23 659.82 240.23 619.78 240.23 559.88C259.77 559.88 299.8 559.88 360.35 559.88C373.37 546.86 400.07 520.17 440.43 479.8C440.43 399.73 440.43 239.9 440.43 0.31ZM240.23 120.43C253.26 120.43 279.95 120.43 320.31 120.43C320.31 173.16 320.31 279.61 320.31 439.77C313.15 439.77 299.8 439.77 280.27 439.77C273.11 439.77 259.77 439.77 240.23 439.77C240.23 386.38 240.23 279.93 240.23 120.43Z" />
</svg>