<svg version="1.2" baseProfile="tiny-ps" xmlns="http://www.w3.org/2000/svg" viewBox="0 0 560 720" width="560" height="720">
	<title>f_1-svg</title>
	<style>
		tspan { white-space:pre }
		.shp0 { fill: #000000 } 
	</style>
	<path id="f " fill-rule="evenodd" class="shp0" d="M280.27 720C233.4 673.12 139.97 579.7 0 439.73C0 386.34 0 279.9 0 120.39C20.18 100.21 60.22 60.17 120.12 0.27C193.68 0.27 340.17 0.27 559.57 0.27C559.57 66.68 559.57 199.82 559.57 399.69C513.35 353.46 420.25 260.36 280.27 120.39C280.27 139.92 280.27 179.64 280.27 239.53C326.5 286.41 419.6 379.83 559.57 519.8C559.57 553.01 559.57 619.74 559.57 720C553.06 720 539.71 720 519.53 720C479.82 680.29 400.07 600.21 280.27 479.77C280.27 499.95 280.27 539.99 280.27 599.88C299.8 620.07 339.84 660.1 400.39 720C380.21 720 340.17 720 280.27 720ZM0 559.84C26.69 586.54 80.08 639.92 160.16 720C133.46 720 80.08 720 0 720C0 693.31 0 639.92 0 559.84Z" />
</svg>