<svg version="1.2" baseProfile="tiny-ps" xmlns="http://www.w3.org/2000/svg" viewBox="0 0 5176 720" width="5176" height="720">
	<title>f_1-svg</title>
	<style>
		tspan { white-space:pre }
		.shp0 { fill: #000000 } 
	</style>
	<path id="f " fill-rule="evenodd" class="shp0" d="M280.27 720C233.4 673.12 139.97 579.7 0 439.73C0 386.34 0 279.9 0 120.39C20.18 100.21 60.22 60.17 120.12 0.27C193.68 0.27 340.17 0.27 559.57 0.27C559.57 66.68 559.57 199.82 559.57 399.69C513.35 353.46 420.25 260.36 280.27 120.39C280.27 139.92 280.27 179.64 280.27 239.53C326.5 286.41 419.6 379.83 559.57 519.8C559.57 553.01 559.57 619.74 559.57 720C553.06 720 539.71 720 519.53 720C479.82 680.29 400.07 600.21 280.27 479.77C280.27 499.95 280.27 539.99 280.27 599.88C299.8 620.07 339.84 660.1 400.39 720C380.21 720 340.17 720 280.27 720ZM0 559.84C26.69 586.54 80.08 639.92 160.16 720C133.46 720 80.08 720 0 720C0 693.31 0 639.92 0 559.84Z" />
	<path id="newverse" fill="#000000" aria-label="newverse"  d="M868.95 611L868.95 109.86L967.27 109.86L967.27 212.95L950.09 224.41Q959.64 191 987.32 163.32Q1015 134.68 1053.18 117.5Q1091.36 99.36 1131.45 99.36Q1188.73 99.36 1226.91 122.27Q1265.09 144.23 1284.18 190.05Q1303.27 235.86 1303.27 305.55L1303.27 611L1204.95 611L1204.95 312.23Q1204.95 269.27 1193.5 241.59Q1182.05 212.95 1158.18 200.55Q1134.32 187.18 1099 189.09Q1070.36 189.09 1046.5 198.64Q1022.64 207.23 1004.5 223.45Q987.32 239.68 976.82 261.64Q967.27 282.64 967.27 307.45L967.27 611L918.59 611Q906.18 611 893.77 611Q881.36 611 868.95 611ZM1670.77 620.55Q1593.45 620.55 1533.32 588.09Q1474.14 554.68 1439.77 497.41Q1406.36 440.14 1406.36 365.68Q1406.36 306.5 1425.45 257.82Q1444.55 209.14 1477.95 173.82Q1512.32 137.55 1559.09 118.45Q1606.82 98.41 1662.18 98.41Q1710.86 98.41 1752.86 117.5Q1794.86 135.64 1825.41 168.09Q1856.91 200.55 1873.14 245.41Q1890.32 289.32 1889.36 341.82L1888.41 383.82L1478.91 383.82L1456.95 305.55L1803.45 305.55L1789.14 321.77L1789.14 298.86Q1786.27 267.36 1768.14 242.55Q1750 217.73 1722.32 203.41Q1694.64 189.09 1662.18 189.09Q1610.64 189.09 1575.32 209.14Q1540 228.23 1521.86 266.41Q1503.73 303.64 1503.73 359Q1503.73 411.5 1525.68 450.64Q1547.64 488.82 1587.73 509.82Q1627.82 530.82 1680.32 530.82Q1717.55 530.82 1749.05 518.41Q1781.5 506 1818.73 473.55L1868.36 543.23Q1845.45 566.14 1812.05 583.32Q1779.59 600.5 1742.36 611Q1706.09 620.55 1670.77 620.55ZM2176.68 611L2109.86 611L1939 109.86L2038.27 108.91L2160.45 484.05L2138.5 482.14L2271.18 189.09L2330.36 189.09L2464 483.09L2438.23 485L2561.36 109.86L2660.64 109.86L2491.68 611L2423.91 611L2284.55 292.18L2306.5 295.05L2176.68 611ZM3023.36 611L2952.73 611L2740.82 109.86L2846.77 109.86L2999.5 485L2981.36 493.59L3144.59 109.86L3245.77 109.86L3023.36 611ZM3555.05 620.55Q3477.73 620.55 3417.59 588.09Q3358.41 554.68 3324.05 497.41Q3290.64 440.14 3290.64 365.68Q3290.64 306.5 3309.73 257.82Q3328.82 209.14 3362.23 173.82Q3396.59 137.55 3443.36 118.45Q3491.09 98.41 3546.45 98.41Q3595.14 98.41 3637.14 117.5Q3679.14 135.64 3709.68 168.09Q3741.18 200.55 3757.41 245.41Q3774.59 289.32 3773.64 341.82L3772.68 383.82L3363.18 383.82L3341.23 305.55L3687.73 305.55L3673.41 321.77L3673.41 298.86Q3670.55 267.36 3652.41 242.55Q3634.27 217.73 3606.59 203.41Q3578.91 189.09 3546.45 189.09Q3494.91 189.09 3459.59 209.14Q3424.27 228.23 3406.14 266.41Q3388 303.64 3388 359Q3388 411.5 3409.95 450.64Q3431.91 488.82 3472 509.82Q3512.09 530.82 3564.59 530.82Q3601.82 530.82 3633.32 518.41Q3665.77 506 3703 473.55L3752.64 543.23Q3729.73 566.14 3696.32 583.32Q3663.86 600.5 3626.64 611Q3590.36 620.55 3555.05 620.55ZM3979.82 611L3880.55 611L3880.55 109.86L3979.82 109.86L3979.82 267.36L3970.27 229.18Q3980.77 192.91 4005.59 163.32Q4031.36 133.73 4063.82 116.55Q4097.23 99.36 4132.55 99.36Q4148.77 99.36 4163.09 102.23Q4178.36 105.09 4186.95 108.91L4161.18 215.82Q4149.73 211.05 4135.41 208.18Q4122.05 204.36 4108.68 204.36Q4082.91 204.36 4059.05 214.86Q4036.14 224.41 4018 242.55Q4000.82 259.73 3990.32 283.59Q3979.82 306.5 3979.82 334.18L3979.82 611ZM4432.27 620.55Q4369.27 620.55 4318.68 598.59Q4268.09 576.64 4234.68 533.68L4301.5 476.41Q4330.14 509.82 4363.55 525.09Q4397.91 539.41 4440.86 539.41Q4458.05 539.41 4472.36 535.59Q4487.64 530.82 4498.14 522.23Q4509.59 513.64 4515.32 502.18Q4521.05 489.77 4521.05 475.45Q4521.05 450.64 4502.91 435.36Q4493.36 428.68 4472.36 421.05Q4452.32 412.45 4419.86 403.86Q4364.5 389.55 4329.18 371.41Q4293.86 353.27 4274.77 330.36Q4260.45 312.23 4253.77 291.23Q4247.09 269.27 4247.09 243.5Q4247.09 212 4260.45 186.23Q4274.77 159.5 4298.64 140.41Q4323.45 120.36 4355.91 109.86Q4389.32 99.36 4426.55 99.36Q4461.86 99.36 4496.23 108.91Q4531.55 118.45 4561.14 136.59Q4590.73 154.73 4610.77 179.55L4554.45 241.59Q4536.32 223.45 4514.36 210.09Q4493.36 195.77 4471.41 188.14Q4449.45 180.5 4431.32 180.5Q4411.27 180.5 4395.05 184.32Q4378.82 188.14 4367.36 195.77Q4356.86 203.41 4351.14 214.86Q4345.41 226.32 4345.41 240.64Q4346.36 253.05 4351.14 264.5Q4356.86 275 4366.41 282.64Q4376.91 290.27 4397.91 298.86Q4418.91 307.45 4451.36 315.09Q4499.09 327.5 4529.64 342.77Q4561.14 357.09 4579.27 376.18Q4598.36 394.32 4606 418.18Q4613.64 442.05 4613.64 471.64Q4613.64 514.59 4588.82 548.95Q4564.95 582.36 4523.91 601.45Q4482.86 620.55 4432.27 620.55ZM4956.32 620.55Q4879 620.55 4818.86 588.09Q4759.68 554.68 4725.32 497.41Q4691.91 440.14 4691.91 365.68Q4691.91 306.5 4711 257.82Q4730.09 209.14 4763.5 173.82Q4797.86 137.55 4844.64 118.45Q4892.36 98.41 4947.73 98.41Q4996.41 98.41 5038.41 117.5Q5080.41 135.64 5110.95 168.09Q5142.45 200.55 5158.68 245.41Q5175.86 289.32 5174.91 341.82L5173.95 383.82L4764.45 383.82L4742.5 305.55L5089 305.55L5074.68 321.77L5074.68 298.86Q5071.82 267.36 5053.68 242.55Q5035.55 217.73 5007.86 203.41Q4980.18 189.09 4947.73 189.09Q4896.18 189.09 4860.86 209.14Q4825.55 228.23 4807.41 266.41Q4789.27 303.64 4789.27 359Q4789.27 411.5 4811.23 450.64Q4833.18 488.82 4873.27 509.82Q4913.36 530.82 4965.86 530.82Q5003.09 530.82 5034.59 518.41Q5067.05 506 5104.27 473.55L5153.91 543.23Q5131 566.14 5097.59 583.32Q5065.14 600.5 5027.91 611Q4991.64 620.55 4956.32 620.55Z" />
</svg>